<svg width="155" height="284" viewBox="0 0 155 284" fill="none" xmlns="http://www.w3.org/2000/svg">
<path d="M168.643 21.3572C156.361 47.1669 135.031 108.877 147.968 149.242C160.904 189.606 208.516 190.909 231.08 176.221C258.993 158.051 249.186 95.6881 161.988 114.992C74.7903 134.295 25.2228 166.637 11.3387 180.395" stroke="white" stroke-dasharray="2 2"/>
<circle cx="15.7197" cy="174.468" r="15.7197" fill="white"/>
<path d="M14.0865 166.536L9.04459 169.828C7.42817 170.883 7.42817 173.245 9.04459 174.3L14.0865 177.592C14.991 178.186 16.4818 178.186 17.3863 177.592L22.4031 174.3C24.0112 173.245 24.0112 170.891 22.4031 169.836L17.3863 166.545C16.4818 165.942 14.991 165.942 14.0865 166.536Z" stroke="#5A0057" stroke-width="2" stroke-linecap="round" stroke-linejoin="round"/>
<path d="M10.3847 175.373L10.3763 179.301C10.3763 180.364 11.1971 181.503 12.2021 181.838L14.8739 182.726C15.3345 182.877 16.0966 182.877 16.5657 182.726L19.2374 181.838C20.2424 181.503 21.0632 180.364 21.0632 179.301V175.414" stroke="#5A0057" stroke-width="2" stroke-linecap="round" stroke-linejoin="round"/>
<path d="M23.5924 176.98V171.955" stroke="#5A0057" stroke-width="2" stroke-linecap="round" stroke-linejoin="round"/>
</svg>
