<svg width="43" height="43" viewBox="0 0 43 43" fill="none" xmlns="http://www.w3.org/2000/svg">
<path d="M21.7866 19.4755C21.6074 19.4575 21.3924 19.4575 21.1953 19.4755C16.9312 19.3321 13.5449 15.8384 13.5449 11.5384C13.5449 7.14879 17.0924 3.58337 21.4999 3.58337C25.8895 3.58337 29.4549 7.14879 29.4549 11.5384C29.437 15.8384 26.0508 19.3321 21.7866 19.4755Z" stroke="white" stroke-width="3" stroke-linecap="round" stroke-linejoin="round"/>
<path d="M12.8283 26.0866C8.49246 28.9891 8.49246 33.7191 12.8283 36.6037C17.7554 39.9004 25.8358 39.9004 30.7629 36.6037C35.0987 33.7012 35.0987 28.9712 30.7629 26.0866C25.8537 22.8079 17.7733 22.8079 12.8283 26.0866Z" stroke="white" stroke-width="3" stroke-linecap="round" stroke-linejoin="round"/>
</svg>
