<svg width="35" height="35" viewBox="0 0 35 35" fill="none" xmlns="http://www.w3.org/2000/svg">
<path d="M3.29639 11.1986V25.2039C3.29639 27.9387 5.23957 29.0615 7.60017 27.7084L10.9828 25.7797C11.7168 25.3622 12.9403 25.3191 13.7032 25.7077L21.26 29.4933C22.0229 29.8675 23.2464 29.8388 23.9805 29.4213L30.2131 25.8516C31.0047 25.391 31.6668 24.2683 31.6668 23.3471V9.34178C31.6668 6.60693 29.7237 5.4842 27.3631 6.83723L23.9805 8.76602C23.2464 9.18345 22.0229 9.22663 21.26 8.83799L13.7032 5.06678C12.9403 4.69254 11.7168 4.72132 10.9828 5.13875L4.75017 8.70845C3.94411 9.16905 3.29639 10.2918 3.29639 11.1986Z" stroke="#5A0057" stroke-width="2" stroke-linecap="round" stroke-linejoin="round"/>
<path d="M12.3215 5.75781V24.4699" stroke="#5A0057" stroke-width="2" stroke-linecap="round" stroke-linejoin="round"/>
<path d="M22.6418 9.5293V28.7884" stroke="#5A0057" stroke-width="2" stroke-linecap="round" stroke-linejoin="round"/>
</svg>
