<svg width="16" height="16" viewBox="0 0 16 16" fill="none" xmlns="http://www.w3.org/2000/svg">
<path fill-rule="evenodd" clip-rule="evenodd" d="M4.7525 0.499023H11.255C13.7975 0.499023 15.5 2.28402 15.5 4.93902V11.0673C15.5 13.7148 13.7975 15.499 11.255 15.499H4.7525C2.21 15.499 0.5 13.7148 0.5 11.0673V4.93902C0.5 2.28402 2.21 0.499023 4.7525 0.499023ZM7.99256 5.79479C7.64006 5.79479 7.34756 5.50154 7.34756 5.14229C7.34756 4.77479 7.64006 4.48229 8.00756 4.48229C8.36756 4.48229 8.66006 4.77479 8.66006 5.14229C8.66006 5.50154 8.36756 5.79479 7.99256 5.79479ZM8.65244 10.8348C8.65244 11.1948 8.35994 11.4873 7.99244 11.4873C7.63244 11.4873 7.33994 11.1948 7.33994 10.8348V7.51976C7.33994 7.15901 7.63244 6.85976 7.99244 6.85976C8.35994 6.85976 8.65244 7.15901 8.65244 7.51976V10.8348Z" fill="#5A0057" fill-opacity="0.5"/>
</svg>
