<svg width="293" height="552" viewBox="0 0 293 552" fill="none" xmlns="http://www.w3.org/2000/svg">
<path d="M327.207 42.4286C303.378 92.5055 261.993 212.238 287.093 290.555C312.193 368.872 404.572 371.399 448.35 342.902C502.509 307.648 483.481 186.648 314.296 224.102C145.111 261.556 48.9384 324.306 22 351" stroke="white" stroke-width="3" stroke-dasharray="2 2"/>
<circle cx="30.5" cy="339.5" r="30.5" fill="white"/>
<path d="M27.3312 324.111L17.5487 330.497C14.4125 332.545 14.4125 337.127 17.5487 339.175L27.3312 345.561C29.0862 346.715 31.9787 346.715 33.7337 345.561L43.4675 339.175C46.5875 337.127 46.5875 332.561 43.4675 330.514L33.7337 324.127C31.9787 322.957 29.0862 322.957 27.3312 324.111Z" stroke="#5A0057" stroke-width="3" stroke-linecap="round" stroke-linejoin="round"/>
<path d="M20.1488 341.255L20.1326 348.876C20.1326 350.94 21.7251 353.15 23.6751 353.8L28.8588 355.523C29.7526 355.815 31.2313 355.815 32.1413 355.523L37.3251 353.8C39.2751 353.15 40.8676 350.94 40.8676 348.876V341.336" stroke="#5A0057" stroke-width="3" stroke-linecap="round" stroke-linejoin="round"/>
<path d="M45.7749 344.375V334.625" stroke="#5A0057" stroke-width="3" stroke-linecap="round" stroke-linejoin="round"/>
</svg>
