<svg width="35" height="36" viewBox="0 0 35 36" fill="none" xmlns="http://www.w3.org/2000/svg">
<path d="M31.8509 26.977C31.8509 27.4952 31.7357 28.0277 31.491 28.5459C31.2464 29.0641 30.9297 29.5535 30.5123 30.0141C29.807 30.7914 29.0297 31.3527 28.1517 31.7126C27.288 32.0724 26.3524 32.2596 25.3448 32.2596C23.8767 32.2596 22.3077 31.9141 20.6524 31.2088C18.9971 30.5035 17.3418 29.5535 15.7009 28.3588C14.0456 27.1497 12.4767 25.8111 10.9797 24.3285C9.49711 22.8315 8.15847 21.2626 6.96378 19.6217C5.78347 17.9808 4.83347 16.3399 4.14256 14.7133C3.45166 13.0724 3.1062 11.5035 3.1062 10.0065C3.1062 9.02774 3.27893 8.09213 3.62438 7.2285C3.96984 6.35047 4.51681 5.54441 5.27969 4.82471C6.2009 3.91789 7.20847 3.47168 8.27363 3.47168C8.67666 3.47168 9.07969 3.55804 9.43953 3.73077C9.81378 3.9035 10.1448 4.16259 10.4039 4.53683L13.7433 9.24365C14.0024 9.6035 14.1895 9.93456 14.3191 10.2512C14.4486 10.5535 14.5206 10.8558 14.5206 11.1293C14.5206 11.4747 14.4198 11.8202 14.2183 12.1512C14.0312 12.4823 13.7577 12.8277 13.4123 13.1732L12.3183 14.3103C12.16 14.4686 12.088 14.6558 12.088 14.8861C12.088 15.0012 12.1024 15.102 12.1312 15.2171C12.1744 15.3323 12.2176 15.4186 12.2464 15.505C12.5054 15.98 12.9517 16.599 13.585 17.3474C14.2327 18.0959 14.9236 18.8588 15.6721 19.6217C16.4494 20.3846 17.1979 21.0899 17.9607 21.7376C18.7092 22.3709 19.3282 22.8027 19.8176 23.0618C19.8895 23.0906 19.9759 23.1338 20.0767 23.177C20.1918 23.2202 20.307 23.2346 20.4365 23.2346C20.6812 23.2346 20.8683 23.1482 21.0267 22.9899L22.1206 21.9103C22.4804 21.5505 22.8259 21.277 23.157 21.1043C23.488 20.9027 23.8191 20.802 24.1789 20.802C24.4524 20.802 24.7403 20.8596 25.057 20.9891C25.3736 21.1186 25.7047 21.3058 26.0645 21.5505L30.8289 24.933C31.2032 25.1921 31.4623 25.4944 31.6206 25.8543C31.7645 26.2141 31.8509 26.574 31.8509 26.977Z" stroke="#5A0057" stroke-width="2" stroke-miterlimit="10"/>
</svg>
