<svg width="16" height="16" viewBox="0 0 16 16" fill="none" xmlns="http://www.w3.org/2000/svg">
<path fill-rule="evenodd" clip-rule="evenodd" d="M14.3018 9.185C14.57 9.3275 14.777 9.5525 14.9226 9.7775C15.2062 10.2425 15.1832 10.8125 14.9073 11.315L14.3707 12.215C14.0871 12.695 13.5583 12.995 13.0141 12.995C12.7458 12.995 12.4469 12.92 12.2016 12.77C12.0024 12.6425 11.7724 12.5975 11.5271 12.5975C10.7683 12.5975 10.1322 13.22 10.1092 13.9625C10.1092 14.825 9.40403 15.5 8.52259 15.5H7.48019C6.59109 15.5 5.88594 14.825 5.88594 13.9625C5.87061 13.22 5.23444 12.5975 4.47564 12.5975C4.2227 12.5975 3.99276 12.6425 3.80115 12.77C3.55588 12.92 3.24929 12.995 2.98869 12.995C2.43683 12.995 1.90797 12.695 1.62438 12.215L1.09551 11.315C0.811922 10.8275 0.796592 10.2425 1.08019 9.7775C1.20282 9.5525 1.43276 9.3275 1.69336 9.185C1.90797 9.08 2.04594 8.9075 2.17623 8.705C2.55947 8.06 2.32953 7.2125 1.67803 6.83C0.919227 6.4025 0.673957 5.45 1.11084 4.7075L1.62438 3.8225C2.06893 3.08 3.01935 2.8175 3.78582 3.2525C4.45264 3.6125 5.31875 3.3725 5.70965 2.735C5.83229 2.525 5.90127 2.3 5.88594 2.075C5.87061 1.7825 5.95492 1.505 6.10055 1.28C6.38414 0.815 6.89768 0.515 7.4572 0.5H8.53792C9.10511 0.5 9.61864 0.815 9.90223 1.28C10.0402 1.505 10.1322 1.7825 10.1092 2.075C10.0938 2.3 10.1628 2.525 10.2855 2.735C10.6764 3.3725 11.5425 3.6125 12.217 3.2525C12.9758 2.8175 13.9339 3.08 14.3707 3.8225L14.8843 4.7075C15.3288 5.45 15.0836 6.4025 14.3171 6.83C13.6656 7.2125 13.4356 8.06 13.8265 8.705C13.9492 8.9075 14.0871 9.08 14.3018 9.185ZM5.83221 8.0075C5.83221 9.185 6.80562 10.1225 8.00898 10.1225C9.21233 10.1225 10.1628 9.185 10.1628 8.0075C10.1628 6.83 9.21233 5.885 8.00898 5.885C6.80562 5.885 5.83221 6.83 5.83221 8.0075Z" fill="#5A0057" fill-opacity="0.5"/>
</svg>
